<?xml version="1.0" encoding="UTF-8"?>
<svg xmlns="http://www.w3.org/2000/svg" viewBox="0 0 1419.07 1419.07">
  <defs>
    <style>
      .cls-1 {
        fill: none;
        stroke-width: .75px;
      }

      .cls-1, .cls-2 {
        stroke: #1d1d1b;
        stroke-miterlimit: 10;
      }

      .cls-2 {
        stroke-width: 1.25px;
      }
    </style>
  </defs>
  <g id="Livello_1">
    <g>
      <path class="cls-2" d="M1418.2,709.81c-.01,390.86-318.63,709.02-709.75,708.39C314.65,1417.57-1.03,1094.94.88,704.1,2.77,317.74,321.27.53,710.17.88c390.72.34,708.04,318.07,708.03,708.93ZM709.4,1373.6c363.81-.02,663.46-297.4,663.84-658.81.39-370.91-294.92-668.7-663.5-669.08C342.75,45.33,46.1,343.19,45.96,712.2c-.14,363.26,298.94,661.42,663.45,661.4Z"/>
      <path class="cls-2" d="M467.64,908.23c33.27,13.72,42.91,40.28,43.08,72.03.08,15.51.64,31.23-1.53,46.5-5.11,36.03-27.08,58.06-63.44,62.17-23.61,2.67-47.61,1.92-71.44,2.4-15.13.31-30.28.06-46.37.06v-342.15c.69-.43,1.31-1.15,1.92-1.14,37.83.51,75.83-.91,113.45,2.2,38.59,3.19,59.25,28.03,60.97,66.63.37,8.33.31,16.68.3,25.02-.04,28.39-8.73,52.2-36.95,66.29ZM387.19,1041.06c15.11,0,29.79.94,44.28-.32,10.39-.9,17.62-8.7,18.03-19.06.82-20.67.96-41.46-.51-62.07-.81-11.3-8.91-19.59-20.73-21.04-13.33-1.63-26.85-1.7-41.08-2.49v104.98ZM387.14,886.9c10.9,0,20.73.54,30.48-.12,15.93-1.09,25.88-10.68,27.05-26.82.91-12.44.8-25.04-.02-37.49-.91-13.7-8.3-23.19-19.79-24.33-12.25-1.22-24.72-.27-37.71-.27v89.04Z"/>
      <path class="cls-2" d="M1091.8,919.97c0,28.83.06,57.66-.01,86.49-.13,55.65-26.22,84.64-81.67,88.37-14.8,1-30.47-1.06-44.8-5.07-33.53-9.36-52.89-36.03-53.44-74.6-.91-63.71-1.56-127.49.16-191.17,1.68-62.1,46.18-83.81,100.18-79.81,41.43,3.07,66.5,21.75,75.49,54.44,2.77,10.09,3.48,20.91,3.93,31.44.64,15.15.17,30.34.17,45.51,0,14.79,0,29.59,0,44.38ZM1032.31,920.03h-.05c0-32.2.27-64.39-.1-96.59-.22-19.48-10.04-29.67-27.82-30.34-20.27-.77-30.33,7.62-32.93,27.64-.44,3.36-.44,6.8-.45,10.2-.03,59.09-.06,118.18.02,177.27,0,4.89.39,9.86,1.29,14.66,2.76,14.81,11.53,22.28,26.51,23.06,21.95,1.14,33.21-9.15,33.45-31.59.32-31.44.08-62.88.08-94.31Z"/>
      <path class="cls-2" d="M680.51,324.72c0,4.3,0,8.38,0,12.46,0,80.81,0,161.63.02,242.44,0,4.17-.02,8.35.27,12.51,1.64,23.93,17.23,34.79,40.69,28.82,10.82-2.75,17.14-9.63,19.04-20.18,1.27-7.04,1.47-14.34,1.48-21.52.11-79.68.08-159.35.09-239.03,0-4.89,0-9.77,0-15.48h55.82c0,4.07,0,7.76,0,11.44,0,82.71.08,165.42-.1,248.13-.02,9.04-.69,18.24-2.5,27.08-6.24,30.48-24.94,49.33-55.09,56.85-21.42,5.34-42.87,4.99-64.1-.61-30.14-7.95-50.05-31.65-53.69-63.54-.99-8.65-1.5-17.4-1.51-26.1-.11-79.68-.07-159.35-.07-239.03,0-4.48,0-8.97,0-14.25h59.65Z"/>
      <path class="cls-2" d="M800.33,863.08h-57.19c0-12.93.19-25.34-.04-37.74-.43-23.41-12.27-34.1-35.27-32.13-16.42,1.4-25.67,12.03-25.97,31.36-.41,26.54-.15,53.09-.15,79.64,0,36.41-.19,72.81.1,109.22.16,20.03,9.08,30.37,26.44,32.12,21.56,2.17,34.03-8.6,34.81-30.35.3-8.33.12-16.68.13-25.03.01-8.29,0-16.59,0-25.81h56.11c-.46,29.71,4.61,60.03-8.6,88.81-8,17.44-21.45,29.29-39.39,35.57-25.06,8.78-50.62,9.11-75.97,1.58-32.14-9.55-52.01-35.49-52.5-71.73-.9-65.97-1.21-131.98.04-197.94.88-46.18,30.05-73.43,78.99-76.59,11.6-.75,23.6.05,35.02,2.19,34.97,6.57,56.26,28.92,60.78,64.34,2.18,17.1,1.82,34.52,2.64,52.49Z"/>
      <path class="cls-2" d="M399.65,666.99h-59.3v-342.02c2.23-.32,4.74-.98,7.25-.98,28.43-.05,56.87-.41,85.29.11,53.69.97,82.24,30.38,82.49,84.3.07,15.93.14,31.87-.02,47.8-.52,50.57-28.79,79.87-79.22,81.9-11.7.47-23.43.07-36.48.07v128.83ZM399.65,373.57v114.64c2.42.27,4.23.64,6.03.64,8.7-.01,17.42.23,26.09-.28,13.34-.79,21.68-6.39,22.39-19.49,1.38-25.57.99-51.29-.04-76.9-.44-10.99-8.66-17.71-19.76-18.45-11.2-.75-22.49-.16-34.71-.16Z"/>
      <path class="cls-2" d="M1059.92,517.76h-80.13v100h101.14v49.13h-160.23v-342.28h160.3v48.04h-101.26v95.56h80.19v49.55Z"/>
    </g>
  </g>
  <g id="Taglio">
    <g>
      <path class="cls-1" d="M709.61,1418.7c-.39,0-.78,0-1.17,0-95.81-.15-188.69-19.15-276.05-56.45-84.2-35.95-159.84-87.34-224.81-152.74-65.4-65.82-116.65-142.45-152.33-227.74C18.38,893.61-.09,800.18.38,704.1c.46-94.51,19.63-186.4,56.97-273.12,36.07-83.77,87.44-159.08,152.69-223.86,65.29-64.83,141.1-115.73,225.3-151.3C522.44,19.03,614.69.38,709.53.38c.21,0,.42,0,.64,0,95.57.08,188.31,18.92,275.66,55.99,84.36,35.8,160.14,87,225.23,152.18,65.1,65.18,116.21,141.03,151.92,225.45,36.97,87.41,55.72,180.21,55.72,275.81,0,95.59-18.82,188.39-55.93,275.84-35.84,84.44-87.11,160.31-152.39,225.48-65.3,65.19-141.27,116.35-225.81,152.06-87.2,36.83-179.7,55.51-274.95,55.51ZM709.54,1.62C321,1.62,3.53,316.6,1.63,704.1c-.93,190.16,72.53,369.34,206.84,504.52,133.49,134.36,311.05,208.52,499.98,208.82.38,0,.78,0,1.16,0,188.54,0,366.01-73.55,499.88-207.2,134.1-133.88,207.95-311.6,207.96-500.44h.62-.62c.01-390.15-317.27-707.84-707.28-708.18-.19,0-.44,0-.63,0ZM709.36,1374.11c-89.12,0-175.79-17.59-257.62-52.29-78.99-33.49-150.03-81.38-211.17-142.33-61.14-60.95-109.16-131.77-142.75-210.49-34.8-81.57-52.42-167.97-52.39-256.8.04-90.28,17.6-177.78,52.21-260.07,33.43-79.5,81.3-150.85,142.26-212.06,60.97-61.21,131.99-109.24,211.1-142.75,81.67-34.59,168.48-52.13,258.01-52.13h.71c90.2.09,177.48,17.79,259.42,52.59,79.2,33.64,150.21,81.8,211.06,143.16,60.84,61.36,108.56,132.91,141.82,212.68,34.41,82.53,51.81,170.4,51.71,261.16-.09,88.37-17.84,174.37-52.77,255.61-33.7,78.39-81.82,148.94-143.02,209.68-61.2,60.74-132.26,108.47-211.21,141.87-81.81,34.61-168.4,52.16-257.35,52.16h-.04ZM709.04,46.45c-177.04,0-343.28,69.06-468.23,194.51-125.1,125.61-194.04,292.97-194.11,471.24-.07,175.49,69.1,341.13,194.76,466.4,125.65,125.26,291.83,194.25,467.9,194.25h.04c365.25-.02,662.72-295.23,663.1-658.07.19-179.19-68.41-347.16-193.17-472.97-124.76-125.8-291.53-195.19-469.59-195.37h-.7Z"/>
      <path class="cls-1" d="M357.06,1092.04c-4.65,0-9.35-.02-14.17-.05-4.88-.02-9.83-.05-14.87-.05h-.62v-343.06l.29-.18c.2-.13.4-.28.59-.44.51-.4,1.02-.79,1.66-.8,11.3.15,22.8.13,33.93.11,26.13-.05,53.15-.1,79.55,2.09,37.89,3.14,59.74,27,61.53,67.21.33,7.51.32,15.15.31,22.54v2.5c-.05,32.39-11.52,53.47-36.09,66.22,28.59,12.28,42.02,35.22,42.22,72.07.01,2.28.03,4.57.06,6.85.13,13.11.26,26.67-1.59,39.73-5.16,36.34-27.88,58.61-63.98,62.69-17.39,1.96-35.27,2.08-52.55,2.19-6.21.04-12.63.08-18.93.21-5.78.12-11.51.15-17.33.15ZM328.64,1090.7c4.83,0,9.57.03,14.25.05,10.85.05,21.09.1,31.47-.11,6.31-.13,12.74-.17,18.95-.21,17.26-.11,35.1-.23,52.42-2.19,35.99-4.07,57.73-25.38,62.88-61.62,1.84-12.98,1.71-26.48,1.58-39.55-.02-2.29-.05-4.58-.06-6.86-.2-36.81-13.76-59.51-42.69-71.44l-1.27-.52,1.23-.61c24.93-12.45,36.56-33.33,36.6-65.72v-2.5c.02-7.38.03-15-.3-22.49-1.76-39.49-23.2-62.94-60.39-66.02-26.35-2.18-53.34-2.13-79.44-2.09-11.13.02-22.64.04-33.95-.11h0c-.19,0-.57.3-.87.53-.14.11-.27.21-.41.31v341.13ZM414.08,1041.97c-4.35,0-8.76-.08-13.27-.17-4.43-.08-9.01-.17-13.56-.17h-.62v-106.24l.66.04c4.36.24,8.7.42,12.9.59,9.75.39,18.95.77,28.22,1.9,12.09,1.48,20.44,9.97,21.27,21.62,1.31,18.27,1.47,38.01.51,62.13-.43,10.83-7.91,18.73-18.6,19.65-5.83.5-11.62.66-17.5.66ZM387.87,1040.38c4.36,0,8.73.09,12.96.17,10.57.2,20.55.39,30.63-.48,10.04-.87,17.06-8.29,17.46-18.46.96-24.07.8-43.77-.51-61.99-.79-11.02-8.71-19.06-20.18-20.47-9.21-1.13-18.4-1.5-28.12-1.89-3.99-.16-8.11-.33-12.25-.55v103.67ZM406.47,887.7c-3.02,0-6.07-.05-9.21-.1-3.27-.05-6.61-.11-10.06-.11h-.62v-90.28h.62c3.98,0,7.96-.09,11.81-.18,8.96-.2,17.43-.39,25.95.45,11.61,1.15,19.41,10.7,20.35,24.91.87,13.17.88,25.81.02,37.57-1.19,16.29-11.25,26.27-27.63,27.4-3.72.26-7.45.33-11.24.33ZM387.82,886.24c3.24,0,6.38.06,9.46.11,7.05.11,13.72.22,20.34-.23,15.68-1.08,25.33-10.64,26.47-26.24.85-11.71.84-24.29-.02-37.4-.9-13.56-8.27-22.66-19.23-23.75-8.45-.84-16.88-.65-25.8-.45-3.66.08-7.43.17-11.22.18v87.78Z"/>
      <path class="cls-1" d="M1002.5,1095.64c-12,0-24.78-1.81-37.41-5.34-34.19-9.54-53.33-36.24-53.88-75.18-.88-61.37-1.58-126.68.16-191.16.7-25.92,8.83-46.08,24.17-59.94,17.49-15.81,44-22.88,76.67-20.46,41.28,3.06,66.86,21.53,76.03,54.89,2.85,10.39,3.53,21.75,3.95,31.58.45,10.64.35,21.48.25,31.96-.04,4.53-.08,9.05-.08,13.57v44.37c0,8.96,0,17.92.01,26.88.01,19.53.02,39.73-.02,59.6-.13,56.16-27.04,85.26-82.24,88.98-2.49.17-5.03.25-7.6.25ZM999.95,744.34c-26.75,0-48.56,7.03-63.57,20.6-15.07,13.62-23.06,33.49-23.75,59.05-1.74,64.46-1.04,129.76-.16,191.11.55,38.33,19.36,64.61,52.97,74,15.19,4.24,30.61,5.99,44.59,5.04,54.42-3.67,80.94-32.37,81.08-87.74.05-19.86.04-40.06.02-59.6,0-8.96-.01-17.92-.01-26.88v-44.37c0-4.53.04-9.06.08-13.59.1-10.46.2-21.28-.25-31.89-.41-9.76-1.09-21.04-3.91-31.3-9.01-32.8-34.22-50.96-74.91-53.98-4.16-.31-8.22-.46-12.17-.46ZM1001.88,1046.58c-1.04,0-2.1-.03-3.19-.09-15.42-.8-24.28-8.51-27.09-23.57-.85-4.58-1.29-9.55-1.3-14.77-.08-60.41-.05-122.48-.02-177.24,0-3.2,0-6.82.45-10.28,2.63-20.27,13-28.95,33.57-28.18,18.36.7,28.19,11.41,28.41,30.96.26,22.65.2,45.67.15,67.94-.02,9.34-.05,18.67-.05,28.01l.05.62c0,9.41.02,18.83.04,28.25.05,21.65.1,44.04-.13,66.06-.12,11.29-3.06,19.72-8.75,25.06-5.11,4.8-12.55,7.23-22.16,7.23ZM1001.74,793.65c-18.36,0-27.3,8.23-29.76,27.14-.44,3.38-.44,6.96-.44,10.12-.03,54.76-.06,116.83.02,177.24,0,5.15.44,10.04,1.27,14.55,2.68,14.41,11.16,21.78,25.92,22.55,10.8.56,19.02-1.73,24.43-6.8,5.43-5.1,8.24-13.23,8.36-24.16.23-22.01.17-44.4.13-66.04-.02-9.21-.04-18.42-.04-27.62h-.05v-.62c0-9.55.02-19.09.05-28.64.05-22.27.11-45.29-.15-67.93-.21-18.77-9.62-29.05-27.21-29.72-.86-.03-1.7-.05-2.52-.05Z"/>
      <path class="cls-1" d="M709.52,672.66c-11.15,0-22.36-1.47-33.54-4.42-30.23-7.97-50.47-31.92-54.14-64.06-.99-8.71-1.51-17.51-1.52-26.17-.09-61.83-.08-124.69-.07-185.48v-68.37h60.89v53.48c0,67.33,0,134.67.02,202v.69c0,3.87,0,7.87.27,11.77.78,11.38,4.82,20.02,11.66,24.98,6.99,5.06,16.76,6.19,28.25,3.27,10.45-2.66,16.7-9.28,18.57-19.68,1.28-7.1,1.46-14.48,1.47-21.41.08-62.8.09-126.65.09-188.4v-66.69h57.06v67.7c.02,63.08.04,128.3-.1,192.45-.02,10.16-.84,19.06-2.51,27.2-6.23,30.39-24.91,49.68-55.54,57.32-10.19,2.54-20.5,3.81-30.86,3.81ZM621.5,325.41v67.12c-.01,60.79-.02,123.65.07,185.48.01,8.61.52,17.36,1.51,26.03,3.61,31.61,23.51,55.16,53.22,62.99,21.35,5.63,42.81,5.83,63.77.6,30.12-7.51,48.5-26.47,54.62-56.35,1.65-8.06,2.46-16.87,2.48-26.95.14-64.15.12-129.37.11-192.45v-66.45h-54.57v65.44c0,61.75,0,125.6-.09,188.4,0,6.98-.2,14.43-1.49,21.63-1.96,10.92-8.52,17.88-19.49,20.67-11.86,3.01-21.98,1.81-29.29-3.47-7.16-5.18-11.37-14.14-12.18-25.9-.27-3.95-.27-7.97-.27-11.86v-.69c-.01-67.33-.02-134.67-.02-202v-52.23h-58.39Z"/>
      <path class="cls-1" d="M711.2,1096.22c-11.94,0-23.97-1.79-36.02-5.37-33.15-9.85-52.45-36.21-52.94-72.31-1.06-77.68-1.05-140.57.04-197.93.87-45.84,29.87-73.97,79.56-77.19,11.42-.74,23.58.02,35.17,2.2,35.52,6.68,56.71,29.11,61.27,64.87,1.5,11.75,1.79,23.41,2.11,35.75.14,5.47.28,11.13.54,16.78l.03.65h-58.46v-.62c0-4.06.02-8.06.04-12.04.04-8.84.08-17.18-.08-25.68-.21-11.5-3.25-19.97-9.03-25.18-5.72-5.16-14.31-7.29-25.55-6.33-16.32,1.39-25.1,12.02-25.4,30.74-.3,19-.24,38.32-.19,57.01.02,7.53.04,15.07.04,22.6,0,10.07-.02,20.14-.03,30.21-.04,25.89-.08,52.66.14,78.99.16,19.46,8.62,29.76,25.88,31.5,10.57,1.06,18.9-.98,24.74-6.08,5.84-5.09,8.99-13.05,9.37-23.67.21-5.89.18-11.89.15-17.7-.01-2.43-.02-4.87-.02-7.3,0-5.75,0-11.5,0-17.56v-8.87s57.36,0,57.36,0v.63c-.12,6.88.08,13.93.26,20.74.63,22.66,1.27,46.08-8.93,68.31-7.97,17.37-21.34,29.45-39.75,35.89-13.25,4.64-26.73,6.96-40.32,6.96ZM710.45,744.4c-2.87,0-5.72.09-8.52.27-48.97,3.17-77.54,30.85-78.39,75.96-1.09,57.34-1.1,120.22-.04,197.89.48,35.52,19.45,61.45,52.05,71.13,25.52,7.58,50.94,7.05,75.57-1.57,18.07-6.33,31.2-18.18,39.03-35.23,10.08-21.96,9.44-45.24,8.82-67.76-.18-6.62-.37-13.45-.28-20.16h-54.85v7.62c0,6.06,0,11.81,0,17.56,0,2.43,0,4.86.02,7.29.03,5.82.06,11.83-.15,17.75-.4,10.97-3.69,19.24-9.8,24.56-6.11,5.33-14.75,7.48-25.69,6.38-18-1.81-26.84-12.52-27-32.73-.21-26.33-.17-53.1-.14-79,.02-10.07.03-20.14.03-30.21,0-7.53-.02-15.06-.04-22.59-.05-18.69-.11-38.03.19-57.04.3-19.45,9.48-30.51,26.54-31.96,11.59-.99,20.5,1.25,26.5,6.65,6.05,5.45,9.23,14.23,9.44,26.09.16,8.51.12,16.87.08,25.71-.02,3.77-.03,7.56-.04,11.41h55.9c-.24-5.44-.38-10.88-.51-16.15-.31-12.31-.6-23.94-2.1-35.63-4.49-35.17-25.33-57.23-60.27-63.8-8.65-1.63-17.61-2.46-26.34-2.46Z"/>
      <path class="cls-1" d="M400.33,667.62h-60.54v-343.13l.54-.08c.68-.1,1.39-.23,2.11-.36,1.69-.31,3.43-.62,5.22-.63,7.38-.01,14.76-.05,22.14-.08,20.7-.1,42.1-.2,63.15.19,54.11.98,82.84,30.34,83.08,84.91v.24c.07,15.59.14,31.71-.02,47.56-.52,51.15-28.86,80.45-79.81,82.5-7.94.32-15.87.24-24.26.15-3.78-.04-7.64-.08-11.62-.08v128.81ZM341.04,666.37h58.05v-128.81h.62c4.21,0,8.28.04,12.25.08,8.38.09,16.28.17,24.2-.15,50.18-2.02,78.09-30.87,78.61-81.26.16-15.84.09-31.96.02-47.54v-.24c-.25-53.76-28.55-82.69-81.86-83.66-21.03-.38-42.43-.28-63.12-.19-7.38.03-14.77.07-22.15.08-1.68,0-3.37.31-5,.61-.55.1-1.1.2-1.63.28v340.8ZM418.25,489.56c-2,0-3.98-.01-5.95-.02-2.19-.01-4.38-.02-6.57-.02h-.01c-1.24,0-2.45-.17-3.85-.36-.69-.09-1.43-.19-2.23-.28l-.56-.06v-115.81h.62c3.78,0,7.51-.06,11.11-.11,8.17-.13,15.88-.24,23.63.28,11.92.79,19.9,8.27,20.34,19.04,1.22,30.34,1.24,54.79.04,76.94-.68,12.63-8.2,19.2-22.97,20.08-4.51.27-9.08.33-13.6.33ZM406.32,488.27c2,0,4,.01,5.99.03,6.39.04,13,.08,19.47-.3,14.03-.83,21.16-7.01,21.8-18.9,1.19-22.11,1.18-46.52-.04-76.83-.41-10.25-7.76-17.08-19.17-17.84-7.7-.51-15.39-.4-23.53-.27-3.41.05-6.93.1-10.51.11v113.44c.6.07,1.17.15,1.71.22,1.36.18,2.53.34,3.68.34.17-.02.4,0,.6,0Z"/>
      <path class="cls-1" d="M1081.49,667.52h-161.45v-343.47h161.52v49.28h-101.24v94.3h80.17v50.79h-80.11v98.73h101.12v50.37ZM921.29,666.27h158.96v-47.87h-101.12v-101.23h80.11v-48.29h-80.17v-96.8h101.24v-46.78h-159.02v340.97Z"/>
    </g>
  </g>
</svg>